<svg xmlns="http://www.w3.org/2000/svg" viewBox="0 0 50 55"><defs><style>.cls-1{fill:none;}.cls-2{fill:#99ae8d;}.cls-3{fill:#4d4930;}</style></defs><g id="レイヤー_2" data-name="レイヤー 2"><g id="レイヤー_1-2" data-name="レイヤー 1"><rect class="cls-1" width="50" height="55"/><path class="cls-2" d="M9.09,7.7V9.9H8.18V7.7H7.27V6.6H5.45V5.5H7.27V4.4h.91V2.2h.91V4.4H10V5.5h1.82V6.6H10V7.7Zm5.46,26.4H12.73v2.2h-.91V34.1H10V33h1.82V30.8h.91V33h1.82ZM29.09,22H26.36v1.1H24.55v1.1h-.91v1.1h-.91v2.2h-.91v3.3h-.91V27.5H20V25.3h-.91V24.2h-.91V23.1H15.45V22H12.73V20.9h2.72V19.8h2.73V18.7h.91V17.6H20V15.4h.91V12.1h.91v3.3h.91v2.2h.91v1.1h.91v1.1h1.81v1.1h2.73ZM44.55,44H42.73v1.1h-.91v2.2h-.91V45.1H40V44H38.18V42.9H40V41.8h.91V39.6h.91v2.2h.91v1.1h1.82Z"/><polygon class="cls-3" points="42.73 42.9 42.73 44 43.64 44 44.55 44 44.55 42.9 43.64 42.9 42.73 42.9"/><rect class="cls-3" x="41.82" y="44" width="0.91" height="1.1"/><polygon class="cls-2" points="41.82 42.9 41.82 41.8 40.91 41.8 40.91 42.9 40 42.9 40 44 40.91 44 40.91 45.1 41.82 45.1 41.82 44 42.73 44 42.73 42.9 41.82 42.9"/><rect class="cls-3" x="41.82" y="41.8" width="0.91" height="1.1"/><polygon class="cls-3" points="40.91 46.2 40.91 47.3 41.82 47.3 41.82 46.2 41.82 45.1 40.91 45.1 40.91 46.2"/><polygon class="cls-3" points="41.82 40.7 41.82 39.6 40.91 39.6 40.91 40.7 40.91 41.8 41.82 41.8 41.82 40.7"/><rect class="cls-3" x="40" y="44" width="0.91" height="1.1"/><rect class="cls-3" x="40" y="41.8" width="0.91" height="1.1"/><polygon class="cls-3" points="39.09 42.9 38.18 42.9 38.18 44 39.09 44 40 44 40 42.9 39.09 42.9"/><polygon class="cls-3" points="27.27 20.9 26.36 20.9 26.36 22 27.27 22 28.18 22 29.09 22 29.09 20.9 28.18 20.9 27.27 20.9"/><polygon class="cls-3" points="24.55 22 24.55 23.1 25.45 23.1 26.36 23.1 26.36 22 25.45 22 24.55 22"/><polygon class="cls-3" points="25.45 20.9 26.36 20.9 26.36 19.8 25.45 19.8 24.55 19.8 24.55 20.9 25.45 20.9"/><rect class="cls-3" x="23.64" y="23.1" width="0.91" height="1.1"/><rect class="cls-3" x="23.64" y="18.7" width="0.91" height="1.1"/><rect class="cls-3" x="22.73" y="24.2" width="0.91" height="1.1"/><rect class="cls-3" x="22.73" y="17.6" width="0.91" height="1.1"/><polygon class="cls-3" points="21.82 26.4 21.82 27.5 22.73 27.5 22.73 26.4 22.73 25.3 21.82 25.3 21.82 26.4"/><polygon class="cls-3" points="21.82 17.6 22.73 17.6 22.73 16.5 22.73 15.4 21.82 15.4 21.82 16.5 21.82 17.6"/><polygon class="cls-3" points="20.91 28.6 20.91 29.7 20.91 30.8 21.82 30.8 21.82 29.7 21.82 28.6 21.82 27.5 20.91 27.5 20.91 28.6"/><polygon class="cls-3" points="21.82 14.3 21.82 13.2 21.82 12.1 20.91 12.1 20.91 13.2 20.91 14.3 20.91 15.4 21.82 15.4 21.82 14.3"/><polygon class="cls-3" points="20.91 25.3 20 25.3 20 26.4 20 27.5 20.91 27.5 20.91 26.4 20.91 25.3"/><polygon class="cls-3" points="20.91 16.5 20.91 15.4 20 15.4 20 16.5 20 17.6 20.91 17.6 20.91 16.5"/><rect class="cls-3" x="19.09" y="24.2" width="0.91" height="1.1"/><rect class="cls-3" x="19.09" y="17.6" width="0.91" height="1.1"/><rect class="cls-3" x="18.18" y="23.1" width="0.91" height="1.1"/><rect class="cls-3" x="18.18" y="18.7" width="0.91" height="1.1"/><polygon class="cls-3" points="17.27 22 16.36 22 15.45 22 15.45 23.1 16.36 23.1 17.27 23.1 18.18 23.1 18.18 22 17.27 22"/><polygon class="cls-2" points="25.45 20.9 24.55 20.9 24.55 19.8 23.64 19.8 23.64 18.7 22.73 18.7 22.73 17.6 21.82 17.6 21.82 16.5 21.82 15.4 20.91 15.4 20.91 16.5 20.91 17.6 20 17.6 20 18.7 19.09 18.7 19.09 19.8 18.18 19.8 18.18 20.9 17.27 20.9 16.36 20.9 15.45 20.9 15.45 22 16.36 22 17.27 22 18.18 22 18.18 23.1 19.09 23.1 19.09 24.2 20 24.2 20 25.3 20.91 25.3 20.91 26.4 20.91 27.5 21.82 27.5 21.82 26.4 21.82 25.3 22.73 25.3 22.73 24.2 23.64 24.2 23.64 23.1 24.55 23.1 24.55 22 25.45 22 26.36 22 26.36 20.9 25.45 20.9"/><polygon class="cls-3" points="17.27 20.9 18.18 20.9 18.18 19.8 17.27 19.8 16.36 19.8 15.45 19.8 15.45 20.9 16.36 20.9 17.27 20.9"/><polygon class="cls-3" points="14.55 20.9 13.64 20.9 12.73 20.9 12.73 22 13.64 22 14.55 22 15.45 22 15.45 20.9 14.55 20.9"/><polygon class="cls-3" points="12.73 33 12.73 34.1 13.64 34.1 14.55 34.1 14.55 33 13.64 33 12.73 33"/><polygon class="cls-3" points="11.82 35.2 11.82 36.3 12.73 36.3 12.73 35.2 12.73 34.1 11.82 34.1 11.82 35.2"/><rect class="cls-2" x="11.82" y="33" width="0.91" height="1.1"/><polygon class="cls-3" points="12.73 31.9 12.73 30.8 11.82 30.8 11.82 31.9 11.82 33 12.73 33 12.73 31.9"/><polygon class="cls-3" points="10.91 33 10 33 10 34.1 10.91 34.1 11.82 34.1 11.82 33 10.91 33"/><polygon class="cls-3" points="10.91 6.6 11.82 6.6 11.82 5.5 10.91 5.5 10 5.5 10 6.6 10.91 6.6"/><rect class="cls-3" x="9.09" y="6.6" width="0.91" height="1.1"/><rect class="cls-3" x="9.09" y="4.4" width="0.91" height="1.1"/><polygon class="cls-3" points="8.18 8.8 8.18 9.9 9.09 9.9 9.09 8.8 9.09 7.7 8.18 7.7 8.18 8.8"/><polygon class="cls-2" points="10 6.6 10 5.5 9.09 5.5 9.09 4.4 8.18 4.4 8.18 5.5 7.27 5.5 7.27 6.6 8.18 6.6 8.18 7.7 9.09 7.7 9.09 6.6 10 6.6"/><polygon class="cls-3" points="9.09 3.3 9.09 2.2 8.18 2.2 8.18 3.3 8.18 4.4 9.09 4.4 9.09 3.3"/><rect class="cls-3" x="7.27" y="6.6" width="0.91" height="1.1"/><rect class="cls-3" x="7.27" y="4.4" width="0.91" height="1.1"/><polygon class="cls-3" points="6.36 5.5 5.45 5.5 5.45 6.6 6.36 6.6 7.27 6.6 7.27 5.5 6.36 5.5"/></g></g></svg>